<svg xmlns="http://www.w3.org/2000/svg" xmlns:xlink="http://www.w3.org/1999/xlink" width="400" height="400" viewBox="0 0 400 400"><defs><linearGradient id="gradient-5" x1="0%" y1="50.00000000000001%" x2="100%" y2="49.99999999999999%"><stop offset="0.00" stop-color="#f2709c"/><stop offset="1.00" stop-color="#ff9472"/></linearGradient></defs>
<rect data-name="background" width="100%" height="100%" fill="#3d424a"/><g data-name="icon" fill="url(#gradient-5)" data="id:8051449" transform="translate(263.7417193372603,134.6003586262405) scale(1.3079758880139023)">
    
 <path d="m83.352 34.418c3.5742 0 6.4844-2.9062 6.4844-6.4844 0-3.5742-2.9062-6.4844-6.4844-6.4844-3.5742 0-6.4844 2.9062-6.4844 6.4844 0 3.5742 2.9062 6.4844 6.4844 6.4844zm0-10.965c2.4727 0 4.4844 2.0117 4.4844 4.4844s-2.0117 4.4844-4.4844 4.4844c-2.4727 0-4.4844-2.0117-4.4844-4.4844s2.0117-4.4844 4.4844-4.4844zm0.64844 44.551h-13.148v18.961c0 2.2266-1.8086 4.0352-4.0312 4.0352-2.2266 0-4.0352-1.8086-4.0352-4.0352v-22.211c0-0.55469 0.44531-1 1-1 0.55469 0 1 0.44531 1 1v22.211c0 1.1211 0.91406 2.0352 2.0352 2.0352 1.1211 0 2.0312-0.91406 2.0312-2.0352v-19.961c0-0.55469 0.44531-1 1-1h14.148c1.2969 0 2.5078-0.50781 3.418-1.4297 0.91016-0.92188 1.3984-2.1406 1.3789-3.4375l0.46484-18.367c-0.042969-2.9336-2.5-5.3516-5.4727-5.3516-2.8555 0-5.1953 2.1445-5.4492 4.9883l-1.0703 8.0781c-0.30469 2.3164-2.0508 4.1797-4.3359 4.6445l-9.0078 1.8242c-0.85938 0.17188-1.4492 0.96484-1.375 1.8398 0.039063 0.46484 0.26172 0.88281 0.625 1.1797 0.35938 0.29688 0.81641 0.42969 1.2734 0.38281l14.32-1.543c1.5586-0.16797 2.8164-1.3672 3.0586-2.9141l1.543-9.8828c0.085937-0.54688 0.58594-0.91406 1.1406-0.83594 0.54688 0.085937 0.91797 0.59766 0.83594 1.1406l-1.543 9.8828c-0.38281 2.4414-2.3633 4.332-4.8203 4.5938l-14.32 1.543c-1.0078 0.10547-1.9805-0.18359-2.7578-0.82422s-1.2578-1.543-1.3438-2.5469c-0.16797-1.8906 1.1094-3.6016 2.9688-3.9766l9.0078-1.8242c1.4531-0.29297 2.5547-1.4766 2.75-2.9453l1.0625-8.0352c0.33984-3.8398 3.5391-6.7656 7.4375-6.7656 4.0625 0 7.4141 3.3047 7.4727 7.3633l-0.46484 18.367c0.027344 1.793-0.66797 3.5234-1.9531 4.8281-1.2891 1.3047-3.0078 2.0234-4.8438 2.0234zm11-32.953v53.949c0 0.55469-0.44531 1-1 1s-1-0.44531-1-1v-17.547h-16.184c-1.1211 0-2.0352 0.91406-2.0352 2.0352v16.512c0 0.55469-0.44531 1-1 1s-1-0.44531-1-1v-16.512c0-2.2266 1.8125-4.0352 4.0352-4.0352h16.184v-34.402c0-0.55469 0.44531-1 1-1s1 0.44531 1 1zm-78.352-0.63281c3.5742 0 6.4844-2.9062 6.4844-6.4844 0-3.5742-2.9062-6.4844-6.4844-6.4844-3.5742 0-6.4844 2.9062-6.4844 6.4844 0 3.5742 2.9062 6.4844 6.4844 6.4844zm0-10.965c2.4727 0 4.4844 2.0117 4.4844 4.4844s-2.0117 4.4844-4.4844 4.4844c-2.4727 0-4.4844-2.0117-4.4844-4.4844s2.0117-4.4844 4.4844-4.4844zm22.789 35.52c-0.089844 1.0039-0.56641 1.9102-1.3438 2.5469-0.77734 0.64062-1.7578 0.92969-2.7578 0.82422l-14.32-1.543c-2.457-0.26562-4.4375-2.1523-4.8203-4.5938l-1.543-9.8828c-0.085938-0.54688 0.28906-1.0586 0.83594-1.1406 0.55859-0.078125 1.0586 0.28906 1.1406 0.83594l1.543 9.8828c0.24219 1.5508 1.5 2.75 3.0586 2.9141l14.324 1.543c0.46094 0.046875 0.91406-0.085937 1.2734-0.38281 0.35938-0.29687 0.58203-0.71484 0.625-1.1797 0.078125-0.875-0.51172-1.6641-1.375-1.8359l-9.0078-1.8242c-2.2891-0.46484-4.0312-2.3281-4.3359-4.6445l-1.0625-8.0391c-0.25781-2.8867-2.6016-5.0312-5.4531-5.0312-2.9727 0-5.4297 2.418-5.4727 5.3906l0.46484 18.285c-0.019532 1.3359 0.46875 2.5547 1.3789 3.4766 0.90625 0.92188 2.1211 1.4297 3.418 1.4297h14.148c0.55469 0 1 0.44531 1 1v19.961c0 1.1211 0.91406 2.0352 2.0312 2.0352 1.1211 0 2.0352-0.91406 2.0352-2.0352v-22.211c0-0.55469 0.44531-1 1-1 0.55469 0 1 0.44531 1 1v22.211c0 2.2266-1.8086 4.0352-4.0352 4.0352-2.2227 0-4.0312-1.8086-4.0312-4.0352v-18.961h-13.148c-1.8359 0-3.5547-0.71875-4.8438-2.0234-1.2891-1.3047-1.9805-3.0352-1.9531-4.8711l-0.46484-18.285c0.058594-4.1016 3.4102-7.4023 7.4727-7.4023 3.8984 0 7.0977 2.9297 7.4414 6.8086l1.0586 7.9961c0.19531 1.4688 1.3008 2.6523 2.75 2.9453l9.0078 1.8242c1.8594 0.375 3.1367 2.0859 2.9688 3.9766zm-12.219 14.516v16.512c0 0.55469-0.44531 1-1 1s-1-0.44531-1-1v-16.512c0-1.1211-0.91406-2.0352-2.0352-2.0352h-16.184v17.547c0 0.55469-0.44531 1-1 1s-1-0.44531-1-1v-53.949c0-0.55469 0.44531-1 1-1s1 0.44531 1 1v34.402h16.184c2.2266 0 4.0352 1.8086 4.0352 4.0352zm28.102 15.512h-4.3203v-38.379h19c0.55469 0 1-0.44531 1-1v-6c0-0.55469-0.44531-1-1-1h-40c-0.55469 0-1 0.44531-1 1v6c0 0.55469 0.44531 1 1 1h19v38.379h-4.3203c-0.55469 0-1 0.44531-1 1s0.44531 1 1 1h10.645c0.55469 0 1-0.44531 1-1s-0.44531-1-1-1zm-24.32-44.379h38v4h-38zm18.359-13.848 0.082031 0.054687c0.16797 0.11328 0.36328 0.17188 0.55859 0.17188s0.39062-0.054688 0.55859-0.17188l0.082031-0.054687c2.0508-1.3828 7.4922-5.0547 10.391-8.5312 2.6484-3.1797 3.1289-6.4531 1.4219-9.7344-0.30469-0.58594-0.74219-1.1445-1.3359-1.7031-1.4609-1.375-3.2227-1.9805-5.1055-1.7617-2.1406 0.25-4.2773 1.6016-6.0156 3.7578-1.7344-2.1562-3.875-3.5039-6.0156-3.7578-1.8906-0.21875-3.6484 0.38672-5.1055 1.7617-0.59375 0.55859-1.0312 1.1172-1.3359 1.7031-1.7031 3.2773-1.2266 6.5547 1.4258 9.7344 2.8984 3.4766 8.3398 7.1484 10.391 8.5312zm-10.043-17.34c0.20312-0.38672 0.50781-0.76953 0.93359-1.1719 0.89062-0.83984 1.8945-1.2617 2.9844-1.2617 0.17188 0 0.34375 0.011719 0.51562 0.03125 1.9102 0.22656 3.8828 1.6875 5.4141 4.0156 0.37109 0.5625 1.3008 0.5625 1.6719 0 1.5312-2.3281 3.5039-3.793 5.4141-4.0156 1.293-0.15234 2.4688 0.26172 3.5 1.2305 0.42969 0.40234 0.73438 0.78516 0.93359 1.168 0.83984 1.6133 1.6289 4.1523-1.1875 7.5312-2.5195 3.0234-7.2422 6.3047-9.4961 7.832-2.25-1.5234-6.9766-4.8047-9.4961-7.832-2.8164-3.3789-2.0273-5.9141-1.1875-7.5273z"/>

    </g><g data-name="business_name" fill="#ffffff" data="id:305" transform="translate(8.371997690497258,151.46249497737665) scale(1.295715463591139)"><path d="M13.24,48.48q-2.96,0-5.32-1.28t-3.74-3.7t-1.38-5.82l0-18.88l3.68,0l0,12.44l0.08,0q0.68-1.24,1.78-2.16t2.52-1.44t2.98-0.52q2.84,0,5.08,1.28t3.54,3.62t1.3,5.54q0,2.52-0.78,4.54t-2.18,3.46t-3.32,2.18t-4.24,0.74z M13.24,45.32q1.88,0,3.42-0.92t2.46-2.6t0.92-4q0-2.24-0.9-3.92t-2.42-2.64t-3.44-0.96q-1.88,0-3.42,0.92t-2.44,2.62t-0.9,4.02q0,2.28,0.9,3.96t2.44,2.6t3.38,0.92z M36.96,48.48q-2.96,0-5.12-1.42t-3.32-3.86t-1.16-5.4q0-3,1.28-5.42t3.68-3.84t5.76-1.42q3.24,0,5.56,1.4t3.58,3.8t1.26,5.36l0,10.32l-3.72,0l0-4.16l-0.08,0q-0.6,1.16-1.62,2.22t-2.54,1.74t-3.56,0.68z M37.92,45.32q2,0,3.54-0.98t2.4-2.72t0.86-3.9q0-2.12-0.82-3.8t-2.34-2.66t-3.56-0.98q-2.16,0-3.7,1t-2.36,2.7t-0.82,3.86q0,2.08,0.8,3.78t2.32,2.7t3.68,1z M64.68,48q-3.36,0-5.96-1.26t-4.06-3.56t-1.46-5.38q0-3.04,1.24-5.46t3.44-3.82t5.12-1.4q3.16,0,5.26,1.36t3.14,3.66t1.04,5.14q0,0.44-0.02,0.92t-0.1,0.84l-15.2,0q0.2,1.88,1.24,3.18t2.66,1.96t3.58,0.66l5.32,0l0,3.16l-5.24,0z M57.08,36.44l11.64,0q0-0.76-0.16-1.62t-0.56-1.68t-1.06-1.48t-1.64-1.06t-2.3-0.4q-1.4,0-2.46,0.54t-1.82,1.44t-1.16,2.02t-0.48,2.24z M84.92,56.12l0-8.32l3.64,0l0,8.32l-3.64,0z M86.72,48.48q-3.12,0-5.52-1.42t-3.8-3.84t-1.4-5.42t1.4-5.42t3.8-3.84t5.52-1.42t5.54,1.42t3.8,3.82t1.38,5.44q0,3-1.38,5.42t-3.8,3.84t-5.54,1.42z M86.72,45.32q2.12,0,3.68-1t2.44-2.7t0.88-3.82t-0.88-3.82t-2.44-2.7t-3.68-1q-2.08,0-3.66,1t-2.46,2.7t-0.88,3.82t0.88,3.82t2.46,2.7t3.66,1z M111.72,48.48q-2.76,0-4.94-1.14t-3.4-3.18t-1.22-4.76l0-11.8l3.72,0l0,11.76q0,1.84,0.8,3.18t2.14,2.06t2.86,0.72q1.56,0,2.9-0.72t2.16-2.06t0.82-3.18l0-11.76l3.72,0l0,11.8q0,2.72-1.24,4.76t-3.4,3.18t-4.92,1.14z M137.48,48q-3.36,0-5.96-1.26t-4.06-3.56t-1.46-5.38q0-3.04,1.24-5.46t3.44-3.82t5.12-1.4q3.16,0,5.26,1.36t3.14,3.66t1.04,5.14q0,0.44-0.02,0.92t-0.1,0.84l-15.2,0q0.2,1.88,1.24,3.18t2.66,1.96t3.58,0.66l5.32,0l0,3.16l-5.24,0z M129.88,36.44l11.64,0q0-0.76-0.16-1.62t-0.56-1.68t-1.06-1.48t-1.64-1.06t-2.3-0.4q-1.4,0-2.46,0.54t-1.82,1.44t-1.16,2.02t-0.48,2.24z M149.64,48l0-3.16l9.76,0q0.96,0,1.66-0.42t1.06-1.1t0.36-1.44q0-0.72-0.32-1.34t-0.98-1t-1.58-0.38l-4.12,0q-1.96,0-3.42-0.66t-2.28-1.94t-0.82-3.12q0-1.56,0.76-2.88t2.12-2.14t3.12-0.82l9.4,0l0,3.16l-9.04,0q-1.24,0-1.96,0.76t-0.72,1.8q0,1,0.74,1.74t2.1,0.74l3.92,0q2.2,0,3.7,0.7t2.28,2.02t0.78,3.24q0,1.64-0.8,3.06t-2.22,2.3t-3.3,0.88l-10.2,0z M177.96,48q-2.72,0-4.26-1.56t-1.54-4.24l0-19.72l3.68,0l0,19.48q0,1.32,0.74,2.1t2.06,0.78l4.12,0l0,3.16l-4.8,0z M168.64,30.76l0-3.16l14.2,0l0,3.16l-14.2,0z"/></g></svg>