<?xml version='1.0' encoding='utf-8'?>
<svg xmlns="http://www.w3.org/2000/svg" version="1.1" viewBox="0 0 368.84 334.56"> <defs> <filter id="a" color-interpolation-filters="sRGB"> <feGaussianBlur stdDeviation="6.7734375"/> </filter> </defs> <g transform="translate(-270.22 -431.16)" fill="none"> <path d="m517.61 480.68c-26.068 0-49.128 12.681-63.469 32.188-14.36-19.294-37.287-31.812-63.188-31.812-43.516 0-78.781 35.266-78.781 78.781 0 10.745 2.1376 20.98 6.0312 30.312l0.0625 0.0937c2.7605 6.5901 6.4245 12.713 10.781 18.25l124.59 129.84c41.757-41.799 88.655-91.415 125.88-130.22 4.3568-5.5365 8.0208-11.66 10.781-18.25l0.0625-0.0937c3.8936-9.3323 6.0312-19.568 6.0312-30.312 0-43.516-35.266-78.781-78.781-78.781z" filter="url(#a)" stroke="#000" stroke-width="15"/> <path d="m517.61 481.03c-26.068 0-49.128 12.681-63.469 32.188-14.36-19.294-37.287-31.812-63.188-31.812-43.516 0-78.781 35.266-78.781 78.781 0 10.745 2.1376 20.98 6.0312 30.312l0.0625 0.0937c2.7605 6.5901 6.4245 12.713 10.781 18.25l124.59 129.84c41.757-41.799 88.655-91.415 125.88-130.22 4.3568-5.5365 8.0208-11.66 10.781-18.25l0.0625-0.0937c3.8936-9.3323 6.0312-19.568 6.0312-30.312 0-43.516-35.266-78.781-78.781-78.781z" stroke="#fff" stroke-width="10"/> </g> </svg>